<svg width="495" height="195" viewBox="0 0 495 195" fill="none" xmlns="http://www.w3.org/2000/svg">
  <rect width="495" height="195" rx="6" fill="#161b22" stroke="#30363d" stroke-width="1"/>
  <text x="25" y="30" font-family="-apple-system,BlinkMacSystemFont,Segoe UI,Helvetica,Arial,sans-serif" font-size="14" font-weight="600" fill="#e6edf3">Estatísticas</text>
  <text x="25" y="52" font-family="-apple-system,BlinkMacSystemFont,Segoe UI,Helvetica,Arial,sans-serif" font-size="11" fill="#7d8590">Linguagens mais usadas nos repositórios públicos</text>
  <rect x="25" y="80" width="445" height="8" rx="4" fill="#21262d"/>
  <clipPath id="barclip">
    <rect x="25" y="80" width="445" height="8" rx="4"/>
  </clipPath>
  <g clip-path="url(#barclip)">
    <rect x="25" y="80" width="276.35" height="8" fill="#3572A5"/>
    <rect x="301.35" y="80" width="61.41" height="8" fill="#563d7c"/>
    <rect x="362.76" y="80" width="52.95" height="8" fill="#f1e05a"/>
    <rect x="415.71" y="80" width="40.49" height="8" fill="#e34c26"/>
    <rect x="456.2" y="80" width="14.24" height="8" fill="#8b949e"/>
  </g>
  <circle cx="30" cy="112" r="5" fill="#3572A5"/>
  <text x="41" y="116" font-family="-apple-system,BlinkMacSystemFont,Segoe UI,Helvetica,Arial,sans-serif" font-size="11" fill="#c9d1d9">Python</text>
  <text x="250" y="116" font-family="-apple-system,BlinkMacSystemFont,Segoe UI,Helvetica,Arial,sans-serif" font-size="11" fill="#7d8590" text-anchor="end">62.1%</text>
  <circle cx="30" cy="134" r="5" fill="#563d7c"/>
  <text x="41" y="138" font-family="-apple-system,BlinkMacSystemFont,Segoe UI,Helvetica,Arial,sans-serif" font-size="11" fill="#c9d1d9">CSS</text>
  <text x="250" y="138" font-family="-apple-system,BlinkMacSystemFont,Segoe UI,Helvetica,Arial,sans-serif" font-size="11" fill="#7d8590" text-anchor="end">13.8%</text>
  <circle cx="30" cy="156" r="5" fill="#f1e05a"/>
  <text x="41" y="160" font-family="-apple-system,BlinkMacSystemFont,Segoe UI,Helvetica,Arial,sans-serif" font-size="11" fill="#c9d1d9">JavaScript</text>
  <text x="250" y="160" font-family="-apple-system,BlinkMacSystemFont,Segoe UI,Helvetica,Arial,sans-serif" font-size="11" fill="#7d8590" text-anchor="end">11.9%</text>
  <circle cx="265" cy="112" r="5" fill="#e34c26"/>
  <text x="276" y="116" font-family="-apple-system,BlinkMacSystemFont,Segoe UI,Helvetica,Arial,sans-serif" font-size="11" fill="#c9d1d9">HTML</text>
  <text x="470" y="116" font-family="-apple-system,BlinkMacSystemFont,Segoe UI,Helvetica,Arial,sans-serif" font-size="11" fill="#7d8590" text-anchor="end">9.1%</text>
  <circle cx="265" cy="134" r="5" fill="#8b949e"/>
  <text x="276" y="138" font-family="-apple-system,BlinkMacSystemFont,Segoe UI,Helvetica,Arial,sans-serif" font-size="11" fill="#c9d1d9">Outros</text>
  <text x="470" y="138" font-family="-apple-system,BlinkMacSystemFont,Segoe UI,Helvetica,Arial,sans-serif" font-size="11" fill="#7d8590" text-anchor="end">3.2%</text>
</svg>